<svg width="673" height="136" viewBox="0 0 673 136" fill="none" xmlns="http://www.w3.org/2000/svg">
    <path
        d="M7.66669 29.6667V51.5714H84.3333V29.6667H73.381V40.619H18.6191V29.6667H7.66669ZM7.66669 106.333V84.4286H84.3333V106.333H73.381V95.3809H18.6191V106.333H7.66669ZM18.6191 62.5238H73.381V73.4762H18.6191V62.5238Z"
        fill="#FF5A4F" />
    <path
        d="M147.192 58.288C147.192 55.712 146.18 53.4733 144.156 51.572C142.193 49.6707 139.403 48.72 135.784 48.72C132.717 48.72 130.295 49.364 128.516 50.652C126.737 51.8787 125.848 53.5653 125.848 55.712C125.848 56.816 126.063 57.828 126.492 58.748C126.921 59.6067 127.657 60.404 128.7 61.14C129.804 61.8147 131.215 62.428 132.932 62.98C134.711 63.532 136.949 64.0533 139.648 64.544C146.395 65.7707 151.547 67.8253 155.104 70.708C158.661 73.5907 160.44 77.8533 160.44 83.496V84.6C160.44 87.6053 159.888 90.3347 158.784 92.788C157.741 95.18 156.208 97.2347 154.184 98.952C152.16 100.669 149.707 101.988 146.824 102.908C143.941 103.828 140.691 104.288 137.072 104.288C132.84 104.288 129.099 103.705 125.848 102.54C122.659 101.313 119.991 99.6573 117.844 97.572C115.697 95.4253 114.072 92.9413 112.968 90.12C111.864 87.2373 111.312 84.1093 111.312 80.736V77.976H123.456V80.184C123.456 84.048 124.56 87.1453 126.768 89.476C129.037 91.7453 132.533 92.88 137.256 92.88C140.936 92.88 143.665 92.0827 145.444 90.488C147.223 88.8933 148.112 86.992 148.112 84.784C148.112 83.7413 147.928 82.76 147.56 81.84C147.192 80.8587 146.548 80 145.628 79.264C144.708 78.4667 143.451 77.7613 141.856 77.148C140.261 76.5347 138.237 76.0133 135.784 75.584C132.533 75.032 129.559 74.3267 126.86 73.468C124.161 72.548 121.8 71.352 119.776 69.88C117.813 68.408 116.28 66.568 115.176 64.36C114.072 62.152 113.52 59.4533 113.52 56.264V55.712C113.52 53.0747 114.041 50.652 115.084 48.444C116.188 46.1747 117.691 44.212 119.592 42.556C121.555 40.9 123.885 39.612 126.584 38.692C129.344 37.772 132.411 37.312 135.784 37.312C139.587 37.312 142.96 37.864 145.904 38.968C148.848 40.0107 151.301 41.452 153.264 43.292C155.288 45.132 156.791 47.248 157.772 49.64C158.815 52.032 159.336 54.5467 159.336 57.184V60.496H147.192V58.288ZM175.188 121.4H163.596V57.368H175.188V63.992H176.844C178.071 61.4773 179.849 59.5453 182.18 58.196C184.511 56.7853 187.485 56.08 191.104 56.08C193.803 56.08 196.348 56.6013 198.74 57.644C201.193 58.6867 203.309 60.22 205.088 62.244C206.928 64.2067 208.369 66.6293 209.412 69.512C210.516 72.3947 211.068 75.676 211.068 79.356V81.012C211.068 84.7533 210.547 88.0653 209.504 90.948C208.461 93.8307 207.051 96.284 205.272 98.308C203.493 100.271 201.377 101.773 198.924 102.816C196.532 103.797 193.925 104.288 191.104 104.288C189.019 104.288 187.209 104.073 185.676 103.644C184.143 103.215 182.793 102.632 181.628 101.896C180.524 101.16 179.573 100.332 178.776 99.412C178.04 98.4307 177.396 97.4187 176.844 96.376H175.188V121.4ZM187.332 93.248C190.951 93.248 193.864 92.144 196.072 89.936C198.341 87.6667 199.476 84.6 199.476 80.736V79.632C199.476 75.768 198.341 72.732 196.072 70.524C193.864 68.2547 190.951 67.12 187.332 67.12C183.713 67.12 180.769 68.2853 178.5 70.616C176.292 72.8853 175.188 75.8907 175.188 79.632V80.736C175.188 84.4773 176.292 87.5133 178.5 89.844C180.769 92.1133 183.713 93.248 187.332 93.248ZM246.332 96.376C245.105 99.2587 243.388 101.313 241.18 102.54C238.972 103.705 236.396 104.288 233.452 104.288C230.692 104.288 228.085 103.767 225.632 102.724C223.24 101.681 221.124 100.148 219.284 98.124C217.444 96.1 215.972 93.6467 214.868 90.764C213.825 87.8813 213.304 84.6 213.304 80.92V79.448C213.304 75.8293 213.825 72.5787 214.868 69.696C215.911 66.8133 217.321 64.36 219.1 62.336C220.879 60.312 222.933 58.7787 225.264 57.736C227.656 56.632 230.201 56.08 232.9 56.08C236.151 56.08 238.757 56.632 240.72 57.736C242.744 58.84 244.339 60.5573 245.504 62.888H247.16V57.368H258.752V89.2C258.752 91.04 259.58 91.96 261.236 91.96H262.984V103H255.072C252.987 103 251.269 102.387 249.92 101.16C248.632 99.9333 247.988 98.3387 247.988 96.376H246.332ZM236.028 93.248C239.401 93.248 242.1 92.144 244.124 89.936C246.148 87.6667 247.16 84.6 247.16 80.736V79.632C247.16 75.768 246.148 72.732 244.124 70.524C242.1 68.2547 239.401 67.12 236.028 67.12C232.655 67.12 229.956 68.2547 227.932 70.524C225.908 72.732 224.896 75.768 224.896 79.632V80.736C224.896 84.6 225.908 87.6667 227.932 89.936C229.956 92.144 232.655 93.248 236.028 93.248ZM312.14 86.256C311.097 91.6533 308.613 96.008 304.688 99.32C300.824 102.632 295.641 104.288 289.14 104.288C285.767 104.288 282.608 103.767 279.664 102.724C276.781 101.681 274.267 100.179 272.12 98.216C269.973 96.2533 268.287 93.8307 267.06 90.948C265.833 88.0653 265.22 84.784 265.22 81.104V80C265.22 76.32 265.833 73.008 267.06 70.064C268.287 67.12 269.973 64.6053 272.12 62.52C274.328 60.4347 276.873 58.84 279.756 57.736C282.7 56.632 285.828 56.08 289.14 56.08C295.519 56.08 300.671 57.736 304.596 61.048C308.583 64.36 311.097 68.7147 312.14 74.112L300.732 77.056C300.364 74.3573 299.199 72.0267 297.236 70.064C295.273 68.1013 292.513 67.12 288.956 67.12C287.3 67.12 285.736 67.4267 284.264 68.04C282.792 68.6533 281.504 69.5427 280.4 70.708C279.296 71.812 278.407 73.192 277.732 74.848C277.119 76.4427 276.812 78.252 276.812 80.276V80.828C276.812 82.852 277.119 84.6613 277.732 86.256C278.407 87.7893 279.296 89.0773 280.4 90.12C281.504 91.1627 282.792 91.96 284.264 92.512C285.736 93.0027 287.3 93.248 288.956 93.248C292.513 93.248 295.212 92.3587 297.052 90.58C298.953 88.8013 300.18 86.4093 300.732 83.404L312.14 86.256ZM319.252 91.96H334.708V68.408H320.356V57.368H346.3V91.96H359.548V103H319.252V91.96ZM349.152 43.844C349.152 45.0707 348.907 46.236 348.416 47.34C347.987 48.3827 347.373 49.3027 346.576 50.1C345.779 50.836 344.828 51.4493 343.724 51.94C342.681 52.3693 341.577 52.584 340.412 52.584C339.185 52.584 338.051 52.3693 337.008 51.94C335.965 51.4493 335.045 50.836 334.248 50.1C333.451 49.3027 332.807 48.3827 332.316 47.34C331.887 46.236 331.672 45.0707 331.672 43.844C331.672 42.6173 331.887 41.4827 332.316 40.44C332.807 39.336 333.451 38.416 334.248 37.68C335.045 36.8827 335.965 36.2693 337.008 35.84C338.051 35.3493 339.185 35.104 340.412 35.104C341.577 35.104 342.681 35.3493 343.724 35.84C344.828 36.2693 345.779 36.8827 346.576 37.68C347.373 38.416 347.987 39.336 348.416 40.44C348.907 41.4827 349.152 42.6173 349.152 43.844ZM380.828 103H369.236V57.368H380.828V64.176H382.484C383.527 61.6 385.213 59.6067 387.544 58.196C389.875 56.7853 392.604 56.08 395.732 56.08C397.94 56.08 399.995 56.448 401.896 57.184C403.859 57.8587 405.576 58.932 407.048 60.404C408.52 61.876 409.655 63.7467 410.452 66.016C411.311 68.2853 411.74 70.984 411.74 74.112V103H400.148V77.056C400.148 73.8053 399.351 71.26 397.756 69.42C396.223 67.5187 393.984 66.568 391.04 66.568C387.605 66.568 385.029 67.7333 383.312 70.064C381.656 72.3333 380.828 75.4 380.828 79.264V103ZM452.616 96.376H450.96C450.47 97.4187 449.856 98.4307 449.12 99.412C448.446 100.332 447.526 101.16 446.36 101.896C445.256 102.632 443.907 103.215 442.312 103.644C440.779 104.073 438.908 104.288 436.7 104.288C433.879 104.288 431.242 103.797 428.788 102.816C426.396 101.773 424.28 100.271 422.44 98.308C420.662 96.284 419.251 93.8307 418.208 90.948C417.227 88.0653 416.736 84.7533 416.736 81.012V79.356C416.736 75.676 417.258 72.3947 418.3 69.512C419.404 66.6293 420.876 64.2067 422.716 62.244C424.618 60.22 426.795 58.6867 429.248 57.644C431.763 56.6013 434.4 56.08 437.16 56.08C440.84 56.08 443.754 56.7853 445.9 58.196C448.047 59.5453 449.734 61.4773 450.96 63.992H452.616V57.368H464.208V114.224C464.208 116.309 463.534 118.027 462.184 119.376C460.896 120.725 459.21 121.4 457.124 121.4H426.396V110.36H450.132C451.788 110.36 452.616 109.44 452.616 107.6V96.376ZM440.472 93.248C444.091 93.248 447.004 92.1133 449.212 89.844C451.482 87.5133 452.616 84.4773 452.616 80.736V79.632C452.616 75.8907 451.482 72.8853 449.212 70.616C447.004 68.2853 444.091 67.12 440.472 67.12C436.854 67.12 433.91 68.2547 431.64 70.524C429.432 72.732 428.328 75.768 428.328 79.632V80.736C428.328 84.6 429.432 87.6667 431.64 89.936C433.91 92.144 436.854 93.248 440.472 93.248ZM500.576 95.548C500.576 96.7747 500.331 97.94 499.84 99.044C499.411 100.087 498.798 101.007 498 101.804C497.203 102.54 496.252 103.123 495.148 103.552C494.106 104.043 493.002 104.288 491.836 104.288C490.61 104.288 489.475 104.043 488.432 103.552C487.39 103.123 486.47 102.54 485.672 101.804C484.875 101.007 484.231 100.087 483.74 99.044C483.311 97.94 483.096 96.7747 483.096 95.548C483.096 94.3213 483.311 93.1867 483.74 92.144C484.231 91.04 484.875 90.12 485.672 89.384C486.47 88.5867 487.39 87.9733 488.432 87.544C489.475 87.0533 490.61 86.808 491.836 86.808C493.002 86.808 494.106 87.0533 495.148 87.544C496.252 87.9733 497.203 88.5867 498 89.384C498.798 90.12 499.411 91.04 499.84 92.144C500.331 93.1867 500.576 94.3213 500.576 95.548ZM554.424 96.376H552.768C552.278 97.4187 551.664 98.4307 550.928 99.412C550.254 100.332 549.334 101.16 548.168 101.896C547.064 102.632 545.715 103.215 544.12 103.644C542.587 104.073 540.716 104.288 538.508 104.288C535.687 104.288 533.05 103.797 530.596 102.816C528.204 101.773 526.088 100.271 524.248 98.308C522.47 96.284 521.059 93.8307 520.016 90.948C519.035 88.0653 518.544 84.7533 518.544 81.012V79.356C518.544 75.676 519.066 72.3947 520.108 69.512C521.212 66.6293 522.684 64.2067 524.524 62.244C526.426 60.22 528.603 58.6867 531.056 57.644C533.571 56.6013 536.208 56.08 538.968 56.08C542.648 56.08 545.562 56.7853 547.708 58.196C549.855 59.5453 551.542 61.4773 552.768 63.992H554.424V38.6H566.016V103H554.424V96.376ZM542.28 93.248C545.899 93.248 548.812 92.1133 551.02 89.844C553.29 87.5133 554.424 84.4773 554.424 80.736V79.632C554.424 75.8907 553.29 72.8853 551.02 70.616C548.812 68.2853 545.899 67.12 542.28 67.12C538.662 67.12 535.718 68.2547 533.448 70.524C531.24 72.732 530.136 75.768 530.136 79.632V80.736C530.136 84.6 531.24 87.6667 533.448 89.936C535.718 92.144 538.662 93.248 542.28 93.248ZM582.696 83.956C582.758 85.3053 583.064 86.5627 583.616 87.728C584.23 88.832 585.027 89.8133 586.008 90.672C587.051 91.4693 588.216 92.1133 589.504 92.604C590.854 93.0333 592.264 93.248 593.736 93.248C596.619 93.248 598.827 92.7573 600.36 91.776C601.894 90.7333 602.998 89.5067 603.672 88.096L613.608 93.616C613.056 94.7813 612.29 96.008 611.308 97.296C610.327 98.5227 609.039 99.6573 607.444 100.7C605.911 101.743 604.01 102.601 601.74 103.276C599.532 103.951 596.926 104.288 593.92 104.288C590.486 104.288 587.358 103.736 584.536 102.632C581.715 101.528 579.262 99.9333 577.176 97.848C575.152 95.7627 573.558 93.2173 572.392 90.212C571.288 87.2067 570.736 83.8027 570.736 80V79.448C570.736 75.952 571.319 72.7627 572.484 69.88C573.711 66.9973 575.367 64.544 577.452 62.52C579.538 60.496 581.96 58.932 584.72 57.828C587.542 56.6627 590.547 56.08 593.736 56.08C597.662 56.08 601.035 56.7853 603.856 58.196C606.678 59.5453 609.008 61.2933 610.848 63.44C612.688 65.5253 614.038 67.856 614.896 70.432C615.755 72.9467 616.184 75.4 616.184 77.792V83.956H582.696ZM593.644 66.568C590.7 66.568 588.308 67.3347 586.468 68.868C584.628 70.34 583.432 72.0573 582.88 74.02H604.408C604.04 71.8733 602.875 70.0947 600.912 68.684C599.011 67.2733 596.588 66.568 593.644 66.568ZM620.076 57.368H632.588L643.352 97.48H645.008L655.772 57.368H668.284L655.22 103H633.14L620.076 57.368Z"
        fill="white" />
</svg>